<svg xmlns="http://www.w3.org/2000/svg" viewBox="0 0 19.69 19.69">
    <defs>
        <style>.colorStroke{stroke:black;}</style>
        <style>.colorFill{fill:black;}</style>
    </defs>
    <title>Датчик количества теплоты</title>
    <g id="Layer_2" data-name="Layer 2">
        <g id="Layer_1-2" data-name="Layer 1">
            <circle style="fill:white;" cx="9.560576" cy="9.8519468" r="9.1293793" />
            <path class="colorFill" d="M9.84,1A8.85,8.85,0,1,1,1,9.84,8.86,8.86,0,0,1,9.84,1m0-1a9.85,9.85,0,1,0,9.85,9.84A9.85,9.85,0,0,0,9.84,0Z"/>
            <path class="colorFill" d="M12.19,13.3c-.74-.2-1.47-.42-2.11-.64a1.06,1.06,0,0,0-.33-.08A2.53,2.53,0,0,1,7.32,9.8,2.61,2.61,0,0,1,9.89,6.9a2.51,2.51,0,0,1,2.46,2.78,2.57,2.57,0,0,1-1.56,2.64v0c.54.14,1.14.27,1.6.35ZM11.6,9.71c0-1.1-.57-2.23-1.74-2.23S8.07,8.59,8.08,9.78,8.72,12,9.83,12,11.6,11,11.6,9.71Z"/>
        </g>
    </g>
</svg>