<?xml version="1.0" encoding="utf-8"?>
<!-- Generator: Adobe Illustrator 23.0.3, SVG Export Plug-In . SVG Version: 6.00 Build 0)  -->
<svg version="1.1" id="Layer_1" xmlns="http://www.w3.org/2000/svg" xmlns:xlink="http://www.w3.org/1999/xlink" x="0px" y="0px"
	 viewBox="0 0 20 25.1" style="enable-background:new 0 0 20 25.1;" xml:space="preserve">
<style type="text/css">
	.st0{fill:#FFFFFF;}
</style>
<title>Датчик количества теплоты</title>
<g>
	<g>
		<circle class="st0" cx="10" cy="10" r="9.5"/>
		<path d="M20,10c0-5.5-4.5-10-10-10C4.5,0,0,4.5,0,10c0,5.4,4.3,9.8,9.7,10v5.1h0.9V20C15.8,19.7,20,15.3,20,10z M10,19.1
			c-5,0-9.1-4.1-9.1-9.1C0.9,5,5,0.9,10,0.9c5,0,9.1,4.1,9.1,9.1S15,19.1,10,19.1z"/>
	</g>
	<path d="M12.4,13.5c-0.8-0.2-1.5-0.4-2.1-0.6c-0.1,0-0.2-0.1-0.3-0.1c-1.4,0-2.5-1.2-2.5-2.7c0-0.1,0-0.1,0-0.2
		C7.3,8.5,8.3,7.2,9.8,7C9.9,7,10,7,10,7c1.4,0,2.5,1.2,2.5,2.6c0,0.1,0,0.2,0,0.2c0.1,1.1-0.5,2.2-1.6,2.7l0,0
		c0.5,0.1,1.2,0.3,1.6,0.4L12.4,13.5z M11.8,9.9c0-1.1-0.6-2.3-1.8-2.3S8.2,8.7,8.2,9.9c0,1.2,0.6,2.3,1.8,2.3S11.8,11.2,11.8,9.9z"
		/>
</g>
</svg>
