<?xml version="1.0" encoding="utf-8"?>
<!-- Generator: Adobe Illustrator 23.0.3, SVG Export Plug-In . SVG Version: 6.00 Build 0)  -->
<svg version="1.1" id="Layer_1" xmlns="http://www.w3.org/2000/svg" xmlns:xlink="http://www.w3.org/1999/xlink" x="0px" y="0px"
	 viewBox="0 0 20 25.1" style="enable-background:new 0 0 20 25.1;" xml:space="preserve">
<style type="text/css">
	.st0{fill:#FFFFFF;}
</style>
<title>Датчик перепада давления</title>
<g>
	<g>
		<circle class="st0" cx="10" cy="10" r="9.5"/>
		<path d="M20,10c0-5.5-4.5-10-10-10C4.5,0,0,4.5,0,10c0,5.4,4.3,9.8,9.7,10v5.1h0.9V20C15.8,19.7,20,15.3,20,10z M10,19.1
			c-5,0-9.1-4.1-9.1-9.1C0.9,5,5,0.9,10,0.9c5,0,9.1,4.1,9.1,9.1S15,19.1,10,19.1z"/>
	</g>
	<path d="M5.5,12.3l1.9-5.2h0.8l1.9,5.1v0.4H5.5V12.3z M9.4,12.1L8.3,9C8.1,8.6,7.9,8.1,7.9,7.7l0,0C7.8,8,7.6,8.5,7.5,8.9l-1.2,3.2
		H9.4z"/>
	<path d="M11.2,12.7V6.9h2.4c0.9,0,1.6,0.6,1.6,1.5c0,0.1,0,0.2,0,0.3c0.1,0.8-0.5,1.6-1.3,1.7c-0.1,0-0.2,0-0.3,0h-1.7v2.3H11.2z
		 M11.9,9.7h1.6c0.6,0,1-0.5,1-1c0,0,0-0.1,0-0.1c0.1-0.6-0.4-1.1-0.9-1.1c0,0-0.1,0-0.1,0h-1.5L11.9,9.7z"/>
</g>
</svg>
