<svg xmlns="http://www.w3.org/2000/svg" viewBox="0 0 30 15.17">
    <defs>
        <style>.cls-1{fill:none;stroke:red;stroke-miterlimit:10;}</style>
    </defs>
    <defs>
        <style>.colorStroke{stroke:black;}</style>
        <style>.colorFill{fill:black;}</style>
    </defs>
    <title>Насос струйный (эжектор, инжектор, элеватор)</title>
    <g id="Layer_1-2" data-name="Layer 1">
        <polyline style="fill:white" points="11.25 10.79 27.2 14.54 27.2 2.35 11.25 6.1"/>
        <circle style="fill:white;" cx="7.5" cy="8.5" r="4.5"/>

        <line class="colorStroke" y1="8.43" x2="30" y2="8.43"/>
        <polygon class="colorFill" points="16.47 7.3 18.43 8.44 16.47 9.57 16.47 7.3"/>
        <path class="colorFill" d="M17,8.17l.46.26L17,8.7V8.17M16,6.44v4l3.46-2L16,6.44Z"/>
        <polyline style="fill:none" class="colorStroke"  points="11.25 10.79 27.2 14.54 27.2 2.35 11.25 6.1"/>
        <path class="colorFill" d="M7.5,4.74A3.7,3.7,0,1,1,3.8,8.43,3.7,3.7,0,0,1,7.5,4.74m0-1a4.7,4.7,0,1,0,4.69,4.69A4.69,4.69,0,0,0,7.5,3.74Z"/>
        <line class="colorStroke" x1="7.5" y1="3.75" x2="7.5"/>
    </g>
</svg>