<svg xmlns="http://www.w3.org/2000/svg" viewBox="0 0 19.68 29.99">
    <defs>
        <style>.cls-1{fill:none;stroke:#000;stroke-miterlimit:10;}</style>
    </defs>
    <defs>
        <style>.colorStroke{stroke:black;}</style>
        <style>.colorFill{fill:black;}</style>
    </defs>
    <title>Насос нерегулируемый с реверсивным потоком</title>
    <g id="Layer_1-2" data-name="Layer 1">
        <circle style="fill:white;" cx="10" cy="14.5" r="9.5"/>

        <polygon class="colorFill" points="8.28 9.4 9.84 6.69 11.4 9.4 8.28 9.4"/>
        <path class="colorFill" d="M9.84,7.69l.7,1.21H9.14l.7-1.21m0-2L7.41,9.9h4.86L9.84,5.69Z"/>
        <polygon class="colorFill" points="8.28 19.78 11.4 19.78 9.84 22.49 8.28 19.78"/>
        <path class="colorFill" d="M10.54,20.28l-.7,1.21-.7-1.21h1.4m1.73-1H7.41l2.43,4.21,2.43-4.21Z"/>
        <line class="colorStroke" x1="9.84" x2="9.84" y2="5.16"/>
        <line class="colorStroke" x1="9.84" y1="24.38" x2="9.84" y2="29.99"/>
        <path class="colorFill" d="M9.84,5.75A8.84,8.84,0,1,1,1,14.59,8.84,8.84,0,0,1,9.84,5.75m0-1a9.84,9.84,0,1,0,9.84,9.84A9.84,9.84,0,0,0,9.84,4.75Z"/>
    </g>
</svg>