<?xml version="1.0" encoding="utf-8"?>
<!-- Generator: Adobe Illustrator 23.0.3, SVG Export Plug-In . SVG Version: 6.00 Build 0)  -->
<svg version="1.1" id="Layer_1" xmlns="http://www.w3.org/2000/svg" xmlns:xlink="http://www.w3.org/1999/xlink" x="0px" y="0px"
	 viewBox="0 0 19.8 25.1" style="enable-background:new 0 0 19.8 25.1;" xml:space="preserve">
<style type="text/css">
	.st0{fill:#FFFFFF;}
</style>
<g>
	<circle class="st0" cx="10" cy="10" r="9.5"/>
	<path d="M20,10c0-5.5-4.5-10-10-10C4.5,0,0,4.5,0,10c0,5.4,4.3,9.8,9.7,10v5.1h0.9V20C15.8,19.7,20,15.3,20,10z M10,19.1
		c-5,0-9.1-4.1-9.1-9.1C0.9,5,5,0.9,10,0.9c5,0,9.1,4.1,9.1,9.1S15,19.1,10,19.1z"/>
</g>
<title>Термопреобразователь</title>
<path d="M9.7,13.6V8.5H8V7.8h4.2v0.6h-1.8v5.2L9.7,13.6z"/>
</svg>
