<svg xmlns="http://www.w3.org/2000/svg" viewBox="-1.5 -1.5 20.8 16.75">
    <defs>
        <style>.colorStroke{stroke:black;}</style>
        <style>.colorFill{fill:black;}</style>
    </defs>
    <title>Надпись</title>
    <g id="Layer_2" data-name="Layer 2">
        <g class="colorFill" id="Layer_1-2" data-name="Layer 1">
            <path d="M0,4.37A.88.88,0,0,0,.17,5a.57.57,0,0,0,.43.18A.57.57,0,0,0,1,5a.89.89,0,0,0,.16-.59V1.2H4.85V12.3H2.5a.84.84,0,0,0-.57.17.58.58,0,0,0-.19.44.59.59,0,0,0,.19.43.84.84,0,0,0,.57.17H8.41A.83.83,0,0,0,9,13.34a.59.59,0,0,0,.19-.43A.58.58,0,0,0,9,12.47a.84.84,0,0,0-.57-.17H6.06V1.2H9.71V4.37A.89.89,0,0,0,9.87,5a.63.63,0,0,0,.88,0,.89.89,0,0,0,.16-.59V0H0Z"/>
            <path d="M11.73,6.38v2.5a.72.72,0,0,0,.17.5.61.61,0,0,0,.89,0A.69.69,0,0,0,13,8.88V7.6h1.21v4.94h-.87a.74.74,0,0,0-.49.15.61.61,0,0,0-.2.45.57.57,0,0,0,.2.44.65.65,0,0,0,.49.17h2.95a.72.72,0,0,0,.5-.16.64.64,0,0,0,.19-.45.61.61,0,0,0-.2-.45.74.74,0,0,0-.49-.15h-.86V7.6h1.21V8.88a.74.74,0,0,0,.15.49.63.63,0,0,0,.91,0,.74.74,0,0,0,.15-.49V6.38Z"/>
        </g>
    </g>
</svg>